<svg xmlns="http://www.w3.org/2000/svg" width="300px" height="300px" fill="none"><g clip-path="url(#A)"><path d="M131.94 4.153l1.174.969.445.373c4.348 3.736 6.55 9.168 8.737 14.328l1.425 3.267 2.459 5.681 3.411 7.896 4.276 9.914 3.369 7.771 2.417 5.556 1.004 2.315 7.445 17.383.192.455.528 1.254.155.37c.203.483.393.961.558 1.457 1.149-2.233 2.183-4.506 3.189-6.806l.47-1.069.922-2.098 1.532-3.455 4.425-10.053 8.63-19.523 3.109-7.064 3.52-7.913 2.189-4.981c1.703-4.006 3.58-7.436 6.587-10.622l.383-.42c3.501-3.695 8.809-6.112 13.899-6.253l2.248-.004h.864l2.335.002 2.445.001 4.624.004 5.266.004L247 2.904l-.26.879-.146.495c-.203.649-.456 1.269-.726 1.893l-.168.394-.359.842-.995 2.34-.212.499-2.368 5.691-.445 1.077-1.122 2.723-6.447 15.524-1.443 3.447-4.317 10.276-4.948 11.784-5.928 14.131-1.973 4.671-.658 1.558-1.986 4.705-5.545 13.091-.955 2.244-5.233 12.227-2.829 6.571-.253.592-2.525 5.899-1.687 3.934-.505 1.176c-3.719 8.655-9.986 16.63-18.958 20.244-4.438 1.693-9.229 2.6-13.787.786-5.91-2.7-8.225-8.411-10.619-14.085l-.894-2.098-.215-.505a98.53 98.53 0 0 0-1.418-3.166c-.623-1.349-1.211-2.715-1.806-4.076l-.438-.999-.68-1.552-1.558-3.55-3.954-9.05-2.429-5.591-.201-.461-1.217-2.789-1.544-3.541-.387-.887-2.308-5.306-.696-1.604-.466-1.072-2.636-6.013-.245-.552-1.162-2.609-.417-.938-.188-.419a26.71 26.71 0 0 1-1.059-2.847h-.37l-.094.301c-.348 1.083-.771 2.114-1.239 3.15l-.227.507-.479 1.069-1.262 2.822-.252.564-1.936 4.413-.281.653-.577 1.336-1.799 4.135-2.558 5.874-4.748 10.874-2.562 5.877-6.297 14.239-1.965 4.526c-4.635 10.881-4.635 10.881-10.285 13.374-4.708 1.867-9.744.872-14.281-1.014-3.554-1.547-6.625-3.86-9.429-6.513l-.522-.486c-4.955-4.71-7.704-10.937-10.288-17.142l-1.623-3.807-.359-.836-.723-1.685-.989-2.306-.159-.371-.486-1.134-2.264-5.281-6.247-14.627-1.366-3.214-3.799-8.987-2.662-6.322-.91-2.154-.226-.536-7.562-18.011-4.521-10.763-5.816-13.887-2.863-6.869-4.731-11.392-1.652-4.001-.484-1.17-.697-1.685-.639-1.545-.187-.453-.53-1.289-.209-.506-.206-.504-.188-.459C0 3.274 0 3.274 0 2.904l11.263-.029 5.231-.013 4.563-.01 2.412-.006 2.278-.004.829-.003c4.198-.031 8.027.994 11.694 3.024l.553.305c1.365.811 2.486 1.853 3.62 2.953.221.213.447.422.674.629 3.522 3.298 5.33 7.965 7.205 12.297l1.699 3.818 2.715 6.159 3.547 8.065.24.539 2.788 6.232 4.291 9.722 1.903 4.34.209.478 3.09 6.987 2.815 6.38 2.932 6.619.224.495c.272.677.272.677.689 1.261l.265-.672c.921-2.326 1.892-4.626 2.89-6.92l.698-1.61.468-1.079 2.127-4.948 3.721-8.62 3.31-7.648.246-.57.507-1.176 4.639-10.724.273-.629 1.293-2.978 1.785-4.112.281-.649 1.606-3.736 3.707-8.496.953-2.162c1.339-3.042 2.715-5.971 4.881-8.517l.408-.493c5.267-6.131 13.604-7.766 20.419-3.25z" fill="#3daee1"/><path d="M0 2.904l11.263-.029 5.231-.013 4.563-.01 2.412-.006 2.278-.004.829-.003c4.198-.031 8.027.994 11.694 3.024l.553.305c1.365.811 2.486 1.853 3.62 2.953.221.213.447.422.674.629 3.522 3.298 5.33 7.965 7.205 12.297l1.699 3.818 2.715 6.159 3.547 8.065.24.539 2.788 6.232 4.291 9.722 1.903 4.34.209.478 3.09 6.987 2.815 6.38 2.932 6.619.224.495c.272.677.272.677.689 1.261l.265-.672a223.86 223.86 0 0 1 2.89-6.92l.698-1.61.468-1.079 2.127-4.948 3.721-8.62 3.31-7.648.246-.57.507-1.176 4.639-10.723.271-.625 1.524-3.51 1.518-3.497.441-1.017.258-.595.218-.5.564-1.383c.455.559.743 1.11 1.025 1.771l.273.638.146.343.468 1.095.509 1.185 2.051 4.731.4.916 3.103 7.083 3.037 6.942.196.449 1.559 3.58 1.365 3.135.196.449 3.051 6.969 3.221 7.351.419.96.579 1.325.173.396c.628 1.442.628 1.442.453 1.958l-.244.526-.278.609-.154.33-.827 1.806-.181.396-2.236 5.038-.433.987-2.728 6.267-2.682 6.167-2.558 5.887-3.095 7.081-2.636 6.046-6.297 14.239-1.965 4.526c-4.635 10.881-4.635 10.881-10.285 13.374-4.708 1.867-9.744.872-14.281-1.014-3.554-1.547-6.625-3.86-9.429-6.513l-.522-.486c-4.955-4.71-7.704-10.937-10.288-17.142l-1.623-3.807-.359-.836-.723-1.684-.989-2.307-.159-.371-.486-1.134-2.264-5.281-6.247-14.627-1.366-3.214-3.799-8.987-2.662-6.322-.91-2.154-.226-.535-7.562-18.011-4.521-10.763-5.816-13.887-2.863-6.869-4.731-11.392-1.652-4.001-.484-1.17-.697-1.685-.639-1.545-.187-.453-.53-1.289-.209-.506-.206-.504-.188-.459C0 3.274 0 3.274 0 2.904z" fill="#f59c00"/><path d="M132.351 4.464l.763.659.445.373c4.348 3.736 6.55 9.168 8.737 14.328l1.425 3.267 2.459 5.681 3.411 7.896 4.276 9.914 3.369 7.771 2.417 5.556 1.004 2.315 5.735 13.339.233.546 1.283 3.017.386.909.528 1.246.156.364c.658 1.571.658 1.571.331 2.538l-.354.787-.194.437-.647 1.435-.455 1.018-.962 2.145-1.418 3.175-.23.518-.46 1.036-.697 1.569-3.3 7.48-3.071 6.948-2.915 6.605-3.663 8.297-.229.516-3.18 7.098c-.479-.479-.688-1.029-.955-1.64l-.174-.394-.569-1.293-.403-.912-.827-1.878-1.082-2.449-5.102-11.669-2.292-5.267-.388-.888-1.149-2.636-1.343-3.079-.388-.891-2.308-5.305-7.586-17.035c-1.17-2.416-2.207-4.896-3.273-7.359l-2.13-4.868-3.316-7.6-2.535-5.802-4.265-9.754-1.602-3.675-.995-2.285-1.692-3.84-.69-1.542-.322-.709-.436-.969-.248-.545c-.295-1.068.044-1.966.495-2.94l.289-.634.155-.334.82-1.791.171-.375 1.573-3.596c.807-1.884 1.638-3.754 2.518-5.605l.259-.551a25.63 25.63 0 0 1 3.08-4.902l.265-.333c5.218-6.467 14.324-8.678 21.262-3.434z" fill="#3c76a3"/><path d="M101.129 28.048c.455.559.743 1.11 1.024 1.771l.274.638.146.343.468 1.096.509 1.185 2.051 4.731.4.916 3.103 7.083 3.037 6.942.196.449 1.559 3.58 1.365 3.135.196.449 3.051 6.969 3.221 7.351.419.96.578 1.325.174.396c.627 1.442.627 1.442.453 1.958l-.244.526-.278.609-.154.33-.827 1.806-.181.396-2.236 5.038-.433.987-2.728 6.267-2.683 6.167-2.557 5.887-3.095 7.081-2.636 6.046-6.297 14.239-1.965 4.526c-4.635 10.881-4.635 10.881-10.285 13.374-4.708 1.867-9.744.872-14.281-1.014-3.554-1.547-6.625-3.86-9.429-6.513l-.522-.486c-2.806-2.668-5.029-5.959-6.856-9.36l-.239-.441c-.293-.86.11-1.592.455-2.388l.264-.612.288-.66.301-.696.791-1.822.734-1.694 1.181-2.726 2.123-4.906 2.681-6.193 2.646-6.113.187-.433 1.326-3.068 1.514-3.501.187-.433 2.459-5.679 1.202-2.773.188-.433 1.218-2.813.398-.919.556-1.284.167-.386c.221-.511.437-1.021.631-1.544.171-.387.171-.387.54-.572.163-.309.163-.309.301-.69l.172-.443.185-.484a119.17 119.17 0 0 1 1.636-3.994l.21-.484.65-1.497.698-1.61.468-1.079 2.128-4.948 3.721-8.62 3.31-7.648.246-.57.507-1.176 4.639-10.724.271-.625 1.524-3.509 1.518-3.497.441-1.017.258-.595.218-.501.564-1.383z" fill="#000"/></g></svg>